<?xml version="1.0" standalone="no"?><!DOCTYPE svg PUBLIC "-//W3C//DTD SVG 1.1//EN" "http://www.w3.org/Graphics/SVG/1.1/DTD/svg11.dtd"><svg t="1773137626598" class="icon" viewBox="0 0 1024 1024" version="1.1" xmlns="http://www.w3.org/2000/svg" p-id="10958" xmlns:xlink="http://www.w3.org/1999/xlink" width="200" height="200"><path d="M872.992 148.8C777.184 52.8 649.792 0 513.984 0 234.368 0 6.784 227.584 6.784 507.392c0 89.408 23.392 176.8 67.808 253.6L2.592 1024l268.992-70.592a507.456 507.456 0 0 0 242.4 61.792h0.192c279.616 0 507.392-227.616 507.392-507.392 0-135.616-52.8-263.008-148.608-359.008z m-358.784 780.8a421.44 421.44 0 0 1-214.816-58.784l-15.392-9.216-159.584 41.792 42.592-155.616-10.016-16a418.752 418.752 0 0 1-64.608-224.384c0-232.608 189.184-421.792 422.016-421.792 112.608 0 218.592 44 298.208 123.584a419.456 419.456 0 0 1 123.392 298.4c-0.192 232.8-189.408 422.016-421.792 422.016z m231.2-316c-12.608-6.4-75.008-36.992-86.592-41.216s-20-6.4-28.608 6.4c-8.384 12.608-32.8 41.216-40.192 49.792-7.392 8.384-14.784 9.6-27.392 3.2s-53.6-19.808-102.016-63.008c-37.6-33.6-63.2-75.2-70.592-87.808s-0.8-19.616 5.6-25.792c5.792-5.6 12.608-14.816 19.008-22.208s8.384-12.608 12.608-21.184c4.192-8.384 2.208-15.808-0.992-22.208s-28.608-68.8-39.008-94.208c-10.208-24.8-20.8-21.408-28.608-21.792-7.392-0.384-15.808-0.384-24.192-0.384s-22.208 3.2-33.792 15.808c-11.616 12.608-44.384 43.392-44.384 105.792s45.408 122.592 51.808 131.2c6.4 8.384 89.408 136.608 216.608 191.392 30.208 12.992 53.792 20.8 72.192 26.784 30.4 9.6 58.016 8.192 79.808 4.992 24.384-3.616 75.008-30.592 85.6-60.192s10.592-55.008 7.392-60.192c-3.008-5.6-11.392-8.8-24.192-15.2z" p-id="10959" fill="#2c2c2c"></path></svg>