<svg width="1024" height="1024" viewBox="0 0 1024 1024" fill="none" xmlns="http://www.w3.org/2000/svg">
<g filter="url(#filter0_d_159_34)">
<rect x="100" y="100" width="824" height="824" rx="184" fill="white"/>
<rect x="100" y="100" width="824" height="824" rx="184" fill="url(#paint0_linear_159_34)" fill-opacity="0.41"/>
</g>
<path fill-rule="evenodd" clip-rule="evenodd" d="M343.869 663.994C344.41 658.75 344.631 658.176 345.283 660.313C345.709 661.705 346.675 667.17 347.432 672.459C349.133 684.352 348.666 706.564 346.521 715.863C342.718 732.344 335.165 744.64 325.195 750.574C319.973 753.681 318.607 754.034 311.939 753.997C302.719 753.947 296.746 750.958 289.676 742.859C284.462 736.886 279.16 727.727 279.981 726.114C280.266 725.555 281.773 724.766 283.329 724.361C284.886 723.955 288.571 722.307 291.518 720.698L296.878 717.771L300.147 722.509C304.477 728.781 308.027 731.276 312.632 731.281C317.322 731.286 320.12 729.532 324.719 723.698C329.284 717.908 332.457 711.703 335.698 702.234C338.527 693.967 342.877 673.611 343.869 663.994ZM483.175 605.427C489.885 603.885 489.679 603.742 490.765 610.663C492.253 620.154 496.224 629.272 502.737 638.157C512.025 650.826 514.183 658.104 511.6 668.051C509.463 676.278 503.081 685.93 491.802 697.994C465.023 726.633 459.247 733.657 455.458 742.192C454.032 745.401 453.941 745.448 453.645 743.117C453.038 738.35 455.396 726.01 458.33 718.594C462.952 706.913 465.899 702.368 480.719 684.064C489.388 673.358 494.532 666.204 494.532 664.857C494.532 663.676 493.08 660.162 491.307 657.047C478.782 635.065 475.431 626.574 473.953 613.075L473.354 607.61L476.299 606.97C477.919 606.618 481.012 605.923 483.175 605.427ZM516.53 592.697C516.855 592.672 518.526 595.451 520.243 598.874C525.003 608.366 534.056 618.897 543.459 625.884C553.499 633.343 556.287 636.326 558.402 641.861C562.76 653.261 559.344 661.795 539.051 690.202C528.581 704.86 519.178 720.712 515.124 730.54C512.555 736.772 511.054 739.395 510.585 738.477C509.142 735.648 509.153 718.152 510.604 711.13C513.582 696.719 521.893 680.248 535.41 661.968C538.854 657.312 541.68 653.142 541.691 652.7C541.703 652.26 538.86 649.699 535.377 647.01C527.14 640.65 519.539 632.782 512.973 623.823C507.503 616.358 501.059 603.046 501.794 600.727C502.025 599.998 503.926 598.782 506.018 598.026C508.11 597.27 511.198 595.771 512.88 594.697C514.562 593.622 516.204 592.723 516.53 592.697ZM446.853 607.591C447.063 607.179 450.113 607.191 453.629 607.617C457.144 608.044 460.48 608.423 461.043 608.459C461.802 608.508 461.832 609.546 461.157 612.493C460.658 614.677 460.474 619.795 460.749 623.869C461.168 630.066 462.042 633.198 466.096 643.017C471.665 656.506 472.252 661.728 469.086 669.652C466.266 676.708 460.083 681.827 440.364 693.432C422.352 704.033 412.898 710.784 408.978 715.849C406.067 719.609 405.399 719.282 406.46 714.617C410.009 699.006 420.909 686.398 441.752 673.797C450.474 668.524 455.217 664.265 455.217 661.706C455.217 660.793 453.628 655.865 451.685 650.758C447.259 639.118 445.202 626.727 445.935 616.105C446.229 611.835 446.642 608.005 446.853 607.591ZM334.258 555.811C337.405 551.378 345.974 543.578 346.714 544.473C346.916 544.717 345.889 548.395 344.434 552.645C340.208 564.977 339.03 573.994 338.168 600.625C336.702 645.881 331.351 664.241 312.927 687.225C286.536 720.148 251.762 724.218 240.187 695.74C237.621 689.423 237.475 688.445 237.82 679.704C238.124 671.999 238.674 669.139 241.013 663.085C247.647 645.912 262.384 629.573 281.99 617.653C288.93 613.432 300.927 607.467 302.475 607.466C303.015 607.466 300.892 609.817 297.758 612.692C279.338 629.582 261.593 654.203 257.356 668.748C252.888 684.086 259.02 693.876 271.394 691.165C278.912 689.518 289.558 682.718 296.401 675.19C299.632 671.636 304.628 664.47 307.503 659.263C315.457 644.86 317.686 634.642 319.769 603.039C321.092 582.96 325.742 567.804 334.258 555.811ZM404.451 494.252C405.121 494.24 403.727 496.731 401.352 499.786C392.015 511.801 382.734 529.251 378.334 543.071C374.594 554.817 372.487 566.392 370.896 583.908C368.545 609.818 365.301 620.995 357.057 631.594C353.392 636.306 347.026 642.39 345.761 642.39C345.606 642.39 346.828 637.509 348.477 631.542C351.425 620.87 351.485 620.29 352.195 595.567C352.592 581.747 353.33 567.677 353.836 564.301C359.128 528.948 373.252 507.096 397.516 496.719C400.66 495.375 403.781 494.265 404.451 494.252ZM262.352 579.469C268.604 577.43 284.255 577.449 292.475 579.505C298.626 581.044 310.63 586.114 309.981 586.9C309.826 587.085 304.705 587.758 298.6 588.395C280.918 590.239 268.743 594.822 261.744 602.265C257.684 606.584 256.017 611.043 256.017 617.585C256.017 622.32 255.795 622.734 249.348 630.055C245.679 634.219 242.414 637.756 242.091 637.912C241.09 638.394 238.724 631.322 237.628 624.576C234.285 603.992 244.542 585.278 262.352 579.469ZM786.636 472.877C787.037 475.017 787.12 481.705 786.82 487.739C785.825 507.763 782.594 522.441 775.312 540.004C762.271 571.455 741.492 596 713.391 613.148C687.364 629.029 662.762 636.176 634.369 636.101C608.24 636.033 588.273 630.449 566.297 617.066C556.678 611.207 542.306 599.342 535.596 591.718C530.326 585.732 530.039 585.177 531.614 584.03C533.874 582.382 546.418 572.028 549.538 569.234L552.014 567.017L557.129 569.459C561.299 571.451 563.937 571.907 571.417 571.932C579.432 571.959 581.303 571.604 586.228 569.116C589.324 567.551 591.953 566.383 592.072 566.52C592.187 566.658 592.694 570.81 593.197 575.743C594.329 586.814 598.186 596.873 604.671 605.663C607.16 609.037 609.349 611.611 609.536 611.386C609.721 611.158 608.744 607.922 607.362 604.194C603.584 593.993 602.589 587.429 603.068 575.858C603.833 557.417 609.522 543.299 622.01 528.848C628.139 521.755 639.386 513.23 642.521 513.301C643.057 513.314 646.199 515.446 649.504 518.039C656.865 523.815 666.468 528.402 676.208 530.791C686.826 533.398 702.755 532.495 713.391 528.683C736.016 520.572 755.808 505.523 775.859 481.183L785.906 468.985L786.636 472.877ZM568.796 422.881C572.993 422.3 608.352 423.163 614.009 423.986C616.532 424.353 618.593 424.95 618.589 425.312C618.584 425.676 615.29 430.443 611.269 435.907L603.955 445.842L590.088 445.653C549.231 445.094 506.692 456.422 471.38 477.264C447.68 491.252 434.418 503.898 424.413 522.05C419.308 531.312 415.711 542.374 411.951 560.372C406.084 588.453 398.807 604.169 387.615 612.931C382.642 616.824 376.562 619.627 374.711 618.88C374.232 618.686 375.083 616.634 376.603 614.32C384.232 602.693 387.273 592.8 392.241 563.447C399.812 518.715 410.187 498.253 437.199 474.778C466.07 449.687 513.393 429.671 556.127 424.474C561.413 423.832 567.114 423.115 568.796 422.881ZM595.443 304.387C604.387 303.254 629.69 304.762 638.194 306.936C660.596 312.661 677.009 325.671 683.633 342.956C686.988 351.71 688.804 363.087 688.252 371.89C686.221 404.307 668.183 432.777 633.147 458.861L624.729 465.127L631.492 465.94C639.097 466.853 651.697 470.406 653.021 472.009C653.601 472.711 652.553 473.065 649.9 473.065C640.12 473.065 621.869 478.333 609.755 484.652C598.207 490.676 591.766 497.519 575.837 520.687C558.346 546.128 539.37 564.934 518.25 577.756C499.276 589.278 485.717 593.579 465.638 594.447C446.118 595.291 436.571 592.688 423.108 582.855C420.586 581.011 418.523 579.247 418.524 578.934C418.526 578.62 424.172 578.284 431.07 578.188C461.093 577.767 485.427 571.57 507.201 558.8C531.614 544.483 542.107 533.498 572.168 490.79C576.162 485.115 579.928 480.472 580.534 480.472C581.142 480.47 584.744 477.152 588.54 473.095C593.185 468.131 599.015 463.406 606.364 458.652C622.493 448.215 631.165 441.061 638.139 432.437C648.815 419.237 653.843 406.455 653.85 392.501C653.858 374.907 645.401 364.322 625.847 357.457C619.671 355.29 617.234 355.069 599.812 355.104C581.641 355.14 579.875 355.325 567.485 358.491C540.309 365.435 519.505 374.288 476.486 397.218C447.973 412.417 434.153 419.224 419.858 425.108C376.695 442.872 343.054 445.82 314.586 434.33C306.865 431.214 291.386 422.468 292.084 421.616C292.204 421.472 296.227 422.938 301.024 424.875C317.115 431.374 322.554 432.325 343.385 432.28C360.36 432.241 363.221 431.965 373.091 429.409C401.001 422.18 420.449 413.467 463.954 388.701C506.411 364.533 522.968 356.325 543.459 349.295C578.142 337.396 607.189 334.921 629.83 341.934C653.448 349.252 667.281 367.805 667.598 392.593L667.673 398.455L670.136 392.106C675.124 379.243 675.908 362.559 672.021 351.976C663.565 328.948 635.43 316.937 598.308 320.506C563.525 323.85 533.183 334.758 480.117 362.991C458.584 374.448 441.605 382.598 429.443 387.316C409.297 395.13 387.362 398.39 371.78 395.886C363.561 394.565 346.345 388.245 343.644 385.557C342.137 384.058 342.138 384.02 343.664 384.607C350.988 387.419 363.995 389.55 373.975 389.57C400.135 389.624 422.079 381.507 470.943 353.705C498.56 337.992 506.35 333.786 520.63 326.873C543.36 315.871 571.453 307.428 595.443 304.387ZM716.886 460.435C725.345 459.046 740.296 459.991 748.086 462.404C751.665 463.513 756.136 465.256 758.019 466.279C761.208 468.009 761.293 468.165 759.259 468.546C747.715 470.714 730.468 478.811 719.814 487.067C711.594 493.436 702.822 503.34 697.507 512.251L692.422 520.776L686.191 520.169C679.333 519.501 670.252 516.734 663.557 513.269C658.127 510.459 650.923 504.927 650.922 503.567C650.922 501.456 660.91 489.962 668.235 483.641C681.798 471.938 700.162 463.179 716.886 460.435ZM561.053 458.832C564.137 454.083 567.154 453.156 571.824 455.519C574.897 457.075 577.532 461.755 577.532 465.657C577.532 472.25 571.658 477.938 566.212 476.619C560.014 475.117 557.07 464.966 561.053 458.832Z" fill="#007DEB"/>
<defs>
<filter id="filter0_d_159_34" x="78" y="89" width="868" height="868" filterUnits="userSpaceOnUse" color-interpolation-filters="sRGB">
<feFlood flood-opacity="0" result="BackgroundImageFix"/>
<feColorMatrix in="SourceAlpha" type="matrix" values="0 0 0 0 0 0 0 0 0 0 0 0 0 0 0 0 0 0 127 0" result="hardAlpha"/>
<feOffset dy="11"/>
<feGaussianBlur stdDeviation="11"/>
<feColorMatrix type="matrix" values="0 0 0 0 0 0 0 0 0 0 0 0 0 0 0 0 0 0 0.28 0"/>
<feBlend mode="normal" in2="BackgroundImageFix" result="effect1_dropShadow_159_34"/>
<feBlend mode="normal" in="SourceGraphic" in2="effect1_dropShadow_159_34" result="shape"/>
</filter>
<linearGradient id="paint0_linear_159_34" x1="512" y1="100" x2="512" y2="924" gradientUnits="userSpaceOnUse">
<stop stop-opacity="0"/>
<stop offset="1" stop-opacity="0.1"/>
</linearGradient>
</defs>
</svg>
