<svg width="22" height="22" viewBox="0 0 22 22" fill="none" xmlns="http://www.w3.org/2000/svg">
<path d="M6.30262 15.1273C6.31931 14.9654 6.32645 14.9473 6.34656 15.013C6.35971 15.056 6.38958 15.2255 6.41297 15.389C6.46548 15.7565 6.45086 16.4423 6.38465 16.7298C6.26709 17.2393 6.03362 17.6196 5.72547 17.8031C5.5643 17.8989 5.52211 17.9097 5.31629 17.9085C5.0313 17.907 4.84634 17.8151 4.62781 17.5648C4.46687 17.3804 4.30315 17.0976 4.32801 17.0472C4.3368 17.0299 4.38347 17.005 4.43152 16.9925C4.47962 16.98 4.59339 16.929 4.68445 16.8792L4.85047 16.7894L4.95203 16.9359C5.08574 17.1295 5.19551 17.2062 5.33777 17.2064C5.48259 17.2065 5.56876 17.1522 5.71082 16.972C5.85187 16.7931 5.95049 16.6016 6.05066 16.3089C6.13808 16.0534 6.27191 15.4246 6.30262 15.1273ZM10.6093 13.3167C10.8163 13.2691 10.8101 13.265 10.8436 13.4788C10.8897 13.7721 11.0125 14.0539 11.2137 14.3284C11.5008 14.72 11.567 14.9449 11.4872 15.2523C11.4212 15.5065 11.2245 15.8052 10.8759 16.1781C10.0481 17.0633 9.86896 17.2805 9.75183 17.5443C9.70789 17.6432 9.70532 17.6445 9.69617 17.5726C9.67747 17.4252 9.75007 17.044 9.8407 16.8148C9.98356 16.4537 10.075 16.3132 10.5331 15.7474C10.801 15.4165 10.9598 15.1953 10.9598 15.1536C10.9598 15.1171 10.915 15.0086 10.8602 14.9124C10.4731 14.233 10.3698 13.9703 10.3241 13.5531L10.3055 13.3841L10.3964 13.3646C10.4464 13.3537 10.5424 13.3321 10.6093 13.3167ZM11.6395 12.9232C11.6496 12.9224 11.7017 13.0088 11.7548 13.1146C11.9019 13.4079 12.182 13.7337 12.4725 13.9495C12.7825 14.1798 12.8691 14.2717 12.9345 14.4427C13.0692 14.7951 12.963 15.0589 12.3358 15.9368C12.0122 16.3899 11.7219 16.8801 11.5966 17.1839C11.5171 17.3766 11.4704 17.4574 11.4559 17.429C11.4115 17.3409 11.4122 16.8013 11.4569 16.5843C11.5489 16.1389 11.8058 15.6297 12.2235 15.0648C12.33 14.9208 12.4175 14.7913 12.4179 14.7777C12.4171 14.7633 12.3295 14.6845 12.2225 14.6019C11.968 14.4053 11.7331 14.162 11.5302 13.8851C11.3611 13.6544 11.1617 13.2429 11.1845 13.1712C11.1919 13.1487 11.2509 13.1115 11.3153 13.0882C11.38 13.0648 11.4753 13.0179 11.5272 12.9847C11.5785 12.952 11.6287 12.9246 11.6395 12.9232ZM9.69519 13.3841C9.80357 13.3973 9.90687 13.4093 9.92469 13.4105C9.94815 13.412 9.94944 13.4444 9.92859 13.5355C9.91319 13.6031 9.9074 13.7613 9.9159 13.887C9.92884 14.0784 9.95568 14.1755 10.0809 14.4788C10.253 14.8957 10.2716 15.0572 10.1737 15.3021C10.0865 15.5201 9.8951 15.678 9.28601 16.0365C8.72925 16.3641 8.43648 16.5733 8.31531 16.7298C8.22542 16.8459 8.20539 16.8359 8.23816 16.6917C8.34789 16.2092 8.68477 15.8195 9.32898 15.43C9.59838 15.2671 9.745 15.1351 9.745 15.056C9.74463 15.0269 9.69543 14.8753 9.63562 14.7181C9.49882 14.3583 9.43526 13.9751 9.45789 13.6468C9.46691 13.516 9.47965 13.3987 9.48621 13.3841C9.49271 13.3714 9.58673 13.371 9.69519 13.3841ZM6.39051 11.4329C6.39674 11.4405 6.36513 11.5537 6.32019 11.6849C6.1896 12.0661 6.15349 12.3452 6.12683 13.1683C6.08152 14.5671 5.91605 15.1346 5.34656 15.8451C4.53099 16.8625 3.45648 16.9884 3.09851 16.1087C3.01917 15.9135 3.01461 15.8828 3.02527 15.6126C3.03467 15.3745 3.05161 15.2861 3.12391 15.099C3.32899 14.5681 3.78449 14.0631 4.39051 13.6947C4.6047 13.5644 4.97456 13.3808 5.02332 13.3802C5.04001 13.3802 4.97466 13.4525 4.87781 13.5413C4.30852 14.0633 3.75982 14.8242 3.62879 15.2738C3.49074 15.7476 3.68023 16.0505 4.06238 15.9671C4.29479 15.9162 4.62429 15.7057 4.83582 15.473C4.93565 15.3632 5.08972 15.1417 5.17859 14.9808C5.42445 14.5356 5.49409 14.2193 5.55848 13.2425C5.59942 12.6223 5.74274 12.1541 6.00574 11.7835C6.10289 11.6467 6.36706 11.406 6.39051 11.4329ZM8.17566 9.88021C8.19621 9.87997 8.15316 9.95691 8.07996 10.0511C7.79142 10.4224 7.50408 10.9619 7.36805 11.389C7.25244 11.7521 7.1877 12.1103 7.13855 12.6517C7.06587 13.4523 6.9655 13.7978 6.71082 14.1253C6.59753 14.271 6.40031 14.4593 6.36121 14.4593C6.35754 14.4556 6.39493 14.3063 6.44519 14.1243C6.53634 13.7945 6.53847 13.7762 6.56043 13.012C6.57269 12.5849 6.59557 12.1496 6.61121 12.0452C6.7748 10.9528 7.21106 10.2771 7.96082 9.95638C8.05801 9.91484 8.15495 9.8806 8.17566 9.88021ZM3.78308 12.514C3.97633 12.451 4.46066 12.4524 4.71473 12.5159C4.90498 12.5636 5.27577 12.7202 5.25574 12.7445C5.24941 12.7503 5.09176 12.7708 4.90418 12.7904C4.35765 12.8474 3.98087 12.989 3.76453 13.2191C3.63907 13.3526 3.58777 13.4905 3.58777 13.6927C3.58777 13.8389 3.58096 13.8522 3.38172 14.0784C3.26868 14.2068 3.16759 14.3152 3.15711 14.3206C3.12619 14.3356 3.0533 14.1171 3.01941 13.9085C2.91615 13.2724 3.23268 12.6936 3.78308 12.514ZM19.9891 9.22005C20.0015 9.28656 20.0033 9.49289 19.994 9.67903C19.9633 10.2979 19.8636 10.7515 19.6386 11.2943C19.2355 12.2664 18.5931 13.025 17.7245 13.555C16.92 14.0459 16.1597 14.2673 15.2821 14.265C14.4746 14.2629 13.8578 14.0897 13.1786 13.6761C12.8813 13.495 12.4368 13.1285 12.2294 12.8929C12.0665 12.7079 12.0576 12.6911 12.1063 12.6556C12.1762 12.6047 12.5636 12.2839 12.66 12.1976L12.7362 12.1292L12.8944 12.2054C13.0233 12.267 13.1056 12.2808 13.3368 12.2816C13.584 12.2824 13.642 12.2714 13.7938 12.1947C13.8896 12.1462 13.971 12.1103 13.9745 12.1146C13.9781 12.1202 13.9942 12.2481 14.0096 12.3997C14.0447 12.7417 14.1638 13.053 14.3641 13.3245C14.4401 13.4274 14.5073 13.5061 14.5145 13.5013C14.5203 13.4943 14.4899 13.3939 14.4471 13.2786C14.3304 12.9634 14.2995 12.7603 14.3143 12.4027C14.338 11.8327 14.5143 11.3962 14.9003 10.9495C15.0896 10.7304 15.437 10.4672 15.5341 10.4691C15.5506 10.4695 15.6478 10.5355 15.7499 10.6156C15.9773 10.794 16.2741 10.9362 16.5751 11.0101C16.9032 11.0906 17.3958 11.0624 17.7245 10.9447C18.4238 10.694 19.0364 10.2292 19.6561 9.47689L19.9667 9.09993L19.9891 9.22005ZM13.2557 7.67415C13.387 7.65629 14.4785 7.68294 14.6532 7.70833C14.7307 7.71962 14.7943 7.73815 14.7948 7.74935C14.7947 7.76057 14.6926 7.90859 14.5682 8.07747L14.3427 8.38411L13.9139 8.37825C12.6511 8.36098 11.3355 8.71159 10.244 9.35579C9.51179 9.78802 9.10202 10.1787 8.79285 10.7396C8.63506 11.0259 8.52334 11.3678 8.40711 11.9242C8.22577 12.7921 8.00109 13.2783 7.65516 13.5492C7.50182 13.6691 7.31436 13.7553 7.25672 13.7327C7.24196 13.7268 7.2676 13.6634 7.31433 13.5921C7.55017 13.2328 7.64418 12.9262 7.79773 12.0189C8.0317 10.6366 8.35273 10.0041 9.18738 9.27864C10.0798 8.50311 11.5432 7.8846 12.8641 7.72396C13.0275 7.70411 13.2038 7.68138 13.2557 7.67415ZM14.079 4.01204C14.3553 3.97702 15.1371 4.02303 15.4003 4.09017C16.0927 4.26713 16.5998 4.67016 16.8046 5.20443C16.9082 5.47486 16.9651 5.82602 16.9481 6.09798C16.8854 7.09997 16.327 7.98024 15.244 8.78646L14.9843 8.97982L15.1932 9.00521C15.4283 9.03344 15.8183 9.14315 15.8593 9.19271C15.877 9.21432 15.8443 9.22589 15.7626 9.22591C15.4603 9.22591 14.8958 9.38803 14.5214 9.58333C14.1644 9.76954 13.9658 9.98162 13.4735 10.6976C12.9329 11.4839 12.3459 12.0649 11.6932 12.4613C11.1069 12.8173 10.6877 12.95 10.0673 12.9769C9.46391 13.003 9.16796 12.9234 8.75183 12.6195C8.67499 12.5633 8.61189 12.5091 8.61023 12.4984C8.61026 12.4887 8.7849 12.4779 8.99793 12.4749C9.92594 12.4619 10.6784 12.27 11.3514 11.8753C12.106 11.4328 12.4303 11.0935 13.3593 9.77376C13.4823 9.59893 13.5987 9.45539 13.618 9.45443C13.6274 9.45443 13.6602 9.42921 13.705 9.38802L13.9804 9.11263C14.1023 8.99993 14.2465 8.88985 14.4169 8.77962C14.9149 8.45731 15.1829 8.23637 15.3983 7.97005C15.7283 7.56213 15.8844 7.16686 15.8846 6.73568C15.8849 6.19183 15.6229 5.86486 15.0184 5.65267C14.8277 5.58575 14.752 5.57835 14.2137 5.57943C13.6524 5.58054 13.5976 5.5861 13.2147 5.68392C12.3748 5.89856 11.7318 6.17249 10.4022 6.88118C9.52104 7.35089 9.09397 7.56164 8.65223 7.74349C7.3183 8.29247 6.27816 8.38356 5.39832 8.02864C5.15974 7.93235 4.68074 7.66154 4.70203 7.63509C4.70573 7.63061 4.83029 7.67587 4.9784 7.73568C5.47573 7.93654 5.64417 7.96657 6.28797 7.96517C6.8125 7.96399 6.90112 7.95522 7.20594 7.8763C8.06862 7.65285 8.66981 7.383 10.0145 6.61751C11.3269 5.87047 11.8392 5.61703 12.4725 5.39974C13.5442 5.03211 14.4418 4.95563 15.1415 5.1722C15.8715 5.39839 16.2996 5.97242 16.3095 6.7386L16.3114 6.91927L16.3876 6.72298C16.5417 6.32543 16.5663 5.80982 16.4462 5.48275C16.1848 4.77102 15.3152 4.39982 14.1679 4.51009C13.0927 4.61346 12.1548 4.95088 10.5145 5.82357C9.84894 6.17769 9.32403 6.4297 8.94812 6.57552C8.32551 6.817 7.6475 6.9175 7.1659 6.84017C6.91183 6.79934 6.37928 6.60392 6.29578 6.52083C6.24931 6.47459 6.24962 6.47343 6.29676 6.49153C6.52309 6.5784 6.92491 6.64419 7.23328 6.64485C8.0419 6.64652 8.72095 6.3958 10.2313 5.53646C11.0845 5.05101 11.3253 4.92091 11.7665 4.70735C12.469 4.36731 13.3375 4.10607 14.079 4.01204ZM17.8329 8.83528C18.0942 8.79241 18.5559 8.82137 18.7968 8.89583C18.9074 8.93011 19.0462 8.98435 19.1044 9.01595C19.2028 9.06934 19.2053 9.07449 19.1425 9.08626C18.7857 9.15329 18.253 9.40343 17.9237 9.65853C17.6697 9.85538 17.3986 10.1614 17.2343 10.4368L17.077 10.7005L16.8837 10.682C16.6717 10.6613 16.3913 10.5751 16.1845 10.4681C16.0166 10.3812 15.7938 10.2103 15.7938 10.1683C15.7939 10.103 16.1026 9.74742 16.329 9.55208C16.7482 9.19043 17.316 8.92009 17.8329 8.83528ZM13.0165 8.78548C13.1117 8.63893 13.2052 8.60995 13.3495 8.68294C13.4443 8.73113 13.5252 8.87595 13.5253 8.99642C13.5253 9.20018 13.344 9.37599 13.1757 9.33528C12.9841 9.28887 12.8934 8.97507 13.0165 8.78548Z" fill="black"/>
</svg>
